<svg width="216" height="63" viewBox="0 0 216 63" fill="none" xmlns="http://www.w3.org/2000/svg">
<g clip-path="url(#clip0_40_2277)">
<path d="M37.2043 28.6225C36.0376 27.6859 34.7123 26.942 33.2248 26.3943C31.7373 25.8465 30.2322 25.4881 28.706 25.3258V25.0823C31.5928 24.5143 33.9368 23.4018 35.7415 21.7551C37.5462 20.1051 38.4486 17.9377 38.4486 15.253C38.4486 12.8117 37.7471 10.7964 36.3478 9.20722C34.9484 7.61802 33.1649 6.43796 31.0006 5.66702C29.6436 5.17674 28.2302 4.84199 26.7674 4.6594C26.0624 4.57149 25.3398 4.50725 24.6031 4.45991V0.00338128H22.7808V4.39228C22.5728 4.39228 22.3649 4.38214 22.1534 4.38214H15.3012V0H13.4789V4.38214H0.701436V4.99415C1.847 5.11588 2.73877 5.28832 3.37324 5.51149C4.01123 5.73465 4.64569 6.17422 5.28368 6.82342C5.53747 7.06687 5.73838 7.46587 5.88642 8.01363C6.03446 8.56478 6.16136 9.18355 6.2671 9.87672C6.37285 10.5699 6.44687 11.2901 6.48916 12.0441C6.53146 12.7981 6.55261 13.5386 6.55261 14.2724C6.55261 15.493 6.56318 16.5716 6.58433 17.5083C6.60548 18.4449 6.61606 19.3612 6.61606 20.2572V29.7214C6.61606 30.9421 6.60548 32.1323 6.58433 33.2921C6.56318 34.4519 6.54204 35.5203 6.52089 36.4975C6.49974 37.4747 6.48916 38.249 6.48916 38.8171C6.48916 39.4697 6.46802 40.129 6.42572 40.8019C6.38342 41.4748 6.3094 42.1138 6.20365 42.7258C6.09791 43.3379 5.98159 43.8755 5.8547 44.3455C5.72781 44.8121 5.55862 45.1705 5.34713 45.414C4.75144 46.0665 3.9795 46.5737 3.02428 46.9389C2.06906 47.3041 1.06097 47.5712 0 47.7335V48.3455H13.4789V53.1909H15.3012V48.3455H21.9631C22.2345 48.3455 22.5094 48.3455 22.7808 48.3388V53.1909H24.6031V48.305C25.6359 48.2745 26.6863 48.2272 27.7543 48.1629C29.7493 48.0412 31.5505 47.6963 33.1649 47.1249C34.0989 46.8003 35.033 46.3201 35.9671 45.6912C36.9012 45.0589 37.7507 44.2981 38.512 43.4021C39.2769 42.5061 39.8902 41.468 40.359 40.2879C40.8243 39.1079 41.0604 37.7858 41.0604 36.3183C41.0604 34.6919 40.7115 33.2346 40.01 31.9531C39.3086 30.6716 38.3745 29.5625 37.2078 28.6259L37.2043 28.6225ZM18.1386 5.17336C21.1101 5.17336 23.5492 5.58249 25.4597 6.394C27.0705 7.08716 28.4205 8.22665 29.5026 9.81247C30.5847 11.3983 31.124 13.2107 31.124 15.2462C31.124 18.0155 30.1371 20.335 28.1632 22.2082C26.1893 24.0815 23.2919 25.1195 19.4745 25.3224C18.8788 25.363 18.0963 25.3833 17.12 25.3833H13.5564V19.5201C13.5564 17.9749 13.567 16.3451 13.5881 14.6342C13.6093 12.9232 13.641 11.3577 13.6833 9.93082C13.7256 9.19708 13.7573 8.60874 13.7785 8.15903C13.7996 7.7127 13.8208 7.334 13.8419 7.02968C13.8631 6.72537 13.8948 6.47177 13.9371 6.26551C13.9794 6.06263 14.0217 5.83947 14.064 5.59264C14.4446 5.47091 14.998 5.36947 15.7206 5.28832C16.4432 5.20717 17.2469 5.16659 18.1386 5.16659V5.17336ZM32.1427 42.3302C31.1663 43.818 29.7881 45.0082 28.0046 45.9009C26.6475 46.594 25.2446 47.0201 23.803 47.1824C22.3614 47.3447 21.0219 47.4258 19.7918 47.4258C18.3501 47.4258 17.2469 47.2737 16.482 46.9694C15.7171 46.665 15.1461 46.2897 14.7619 45.84C14.2543 45.1908 13.9441 44.3658 13.8384 43.3683C13.7326 42.3708 13.6586 41.0994 13.6163 39.5508C13.6163 38.8577 13.6057 38.036 13.5846 37.0791C13.5634 36.1222 13.5529 35.074 13.5529 33.9345V26.303H19.7283C20.9585 26.303 22.03 26.3537 22.9429 26.4551C23.8559 26.5566 24.7794 26.7527 25.7134 27.0367C26.859 27.4019 27.9094 27.9023 28.8646 28.5312C29.8198 29.1635 30.6482 29.9142 31.3461 30.7899C32.0475 31.6657 32.5974 32.6226 33.0027 33.6606C33.4046 34.6987 33.6055 35.8077 33.6055 36.9878C33.6055 39.0639 33.1191 40.8459 32.1427 42.3302Z" fill="#1DB049"/>
<path d="M68.7513 44.8628C68.4552 44.6599 68.2755 44.4773 68.212 44.315C68.1486 44.1527 68.1168 43.9093 68.1168 43.5813V19.4626H57.4226V20.1355C58.3567 20.2166 59.259 20.3181 60.1261 20.4398C60.9967 20.5615 61.6841 20.7238 62.1952 20.9267C62.449 21.2547 62.6181 21.7314 62.7063 22.3604C62.7909 22.9927 62.8332 23.51 62.8332 23.9191V41.3226C62.449 41.8095 62.033 42.2795 61.5854 42.7258C61.1377 43.1755 60.6478 43.5711 60.1155 43.916C59.5833 44.2609 58.9841 44.5483 58.3249 44.7715C57.6623 44.9946 56.8833 45.1062 55.9915 45.1062C53.6475 45.1062 52.0473 44.4638 51.1943 43.1823C50.3413 41.9008 49.9148 39.916 49.9148 37.2279V19.4592H40.1123V20.1321C40.493 20.1727 40.8983 20.2031 41.3213 20.2234C41.7443 20.2437 42.1496 20.2944 42.5303 20.3756C42.911 20.4567 43.2634 20.5784 43.5807 20.7407C43.8979 20.903 44.1411 21.1668 44.3138 21.5353C44.3984 21.6571 44.4513 21.8498 44.4725 22.1135C44.4936 22.3807 44.5253 22.6647 44.5676 22.969C44.6099 23.2733 44.6311 23.5709 44.6311 23.8549V39.4257C44.6311 42.3978 45.2761 44.6565 46.5732 46.2051C47.8668 47.7538 49.8725 48.5247 52.5901 48.5247C53.7779 48.5247 54.8918 48.3421 55.9316 47.9736C56.9714 47.6084 57.9161 47.108 58.7655 46.479C59.615 45.8467 60.3764 45.1468 61.0567 44.3725C61.7334 43.5982 62.308 42.8678 62.7768 42.1747L62.8402 42.2355V48.403H63.2843L72.3219 46.8138V46.4486C71.8144 46.2457 71.1869 45.982 70.4432 45.654C69.6995 45.3294 69.139 45.0657 68.7548 44.8594H68.7513V44.8628Z" fill="white"/>
<path d="M106.417 44.5889C105.61 44.9778 104.592 45.1705 103.361 45.1705C101.874 45.1705 100.665 44.7039 99.7343 43.7673C98.8003 42.8307 98.335 41.326 98.335 39.2499V23.1922H108.011L109.984 19.466H98.2081V14.1541H97.704L91.8811 19.466H80.3232V14.1541H79.8192L70.6476 22.5193V23.1922H75.2933C75.2933 25.8803 75.2722 28.9438 75.2299 32.3825C75.1876 35.8213 75.1664 39.4562 75.1664 43.2804C75.1664 43.933 75.3638 44.572 75.7657 45.2043C76.164 45.8366 76.6786 46.4047 77.306 46.9153C77.9334 47.4258 78.6595 47.8113 79.4773 48.075C80.295 48.3388 81.1516 48.4707 82.0433 48.4707C83.4004 48.4707 84.5777 48.3185 85.5752 48.0142C86.5727 47.7099 87.4433 47.2805 88.1835 46.7327C88.9273 46.1815 89.5194 45.5729 89.9671 44.9C90.4112 44.2272 90.7637 43.5881 91.0175 42.9761L90.6368 42.7935C90.0411 43.6084 89.3432 44.2069 88.536 44.5957C87.7288 44.9846 86.7102 45.1773 85.48 45.1773C83.9926 45.1773 82.7835 44.7107 81.853 43.7741C80.9189 42.8375 80.4537 41.3328 80.4537 39.2567V23.199H93.1852C93.1852 25.8871 93.1641 28.9505 93.1218 32.3893C93.0795 35.8281 93.0584 39.4629 93.0584 43.2872C93.0584 43.9397 93.2557 44.5788 93.6576 45.2111C94.0559 45.8434 94.5705 46.4115 95.1979 46.922C95.8253 47.4326 96.5514 47.8181 97.3692 48.0818C98.1869 48.3456 99.0435 48.4774 99.9352 48.4774C101.292 48.4774 102.47 48.3253 103.467 48.021C104.465 47.7166 105.335 47.2872 106.075 46.7394C106.819 46.1883 107.411 45.5797 107.859 44.9068C108.303 44.2339 108.656 43.5949 108.909 42.9828L108.529 42.8003C107.933 43.6151 107.235 44.2136 106.428 44.6025L106.417 44.5889Z" fill="white"/>
<path d="M130.901 42.7563C129.311 43.7944 127.453 44.3117 125.331 44.3117C123.379 44.3117 121.659 43.9668 120.175 43.2737C118.687 42.5839 117.457 41.6371 116.484 40.4334C115.508 39.233 114.764 37.8501 114.257 36.2812C113.749 34.7156 113.492 33.0757 113.492 31.3648C113.492 30.9185 113.513 30.4789 113.555 30.0528C113.597 29.6268 113.619 29.2481 113.619 28.9235H134.052C133.925 27.2126 133.52 25.7282 132.843 24.467C132.163 23.2058 131.285 22.1576 130.199 21.3224C129.117 20.4872 127.845 19.8684 126.382 19.4593C124.919 19.0535 123.358 18.8473 121.704 18.8473C119.667 18.8473 117.81 19.2666 116.135 20.0984C114.457 20.9335 113.037 22.0223 111.87 23.3647C110.704 24.707 109.801 26.2252 109.163 27.9125C108.525 29.6031 108.208 31.3005 108.208 33.0115C108.208 35.1282 108.546 37.1332 109.227 39.0268C109.903 40.9203 110.873 42.567 112.124 43.9736C113.375 45.3768 114.895 46.469 116.675 47.2399C118.458 48.0142 120.432 48.3997 122.593 48.3997C124.334 48.3997 125.913 48.0954 127.334 47.4833C128.754 46.8713 129.974 46.1004 130.992 45.1638C132.011 44.2272 132.815 43.1993 133.41 42.0801C134.002 40.9609 134.387 39.9532 134.556 39.0572L134.045 38.9355C133.537 40.4435 132.487 41.7149 130.894 42.7529H130.901V42.7563ZM114.447 25.9649C114.828 25.0486 115.37 24.1424 116.072 23.2463C116.773 22.3503 117.598 21.5658 118.553 20.8963C119.508 20.2235 120.58 19.8887 121.768 19.8887C123.59 19.8887 125.046 20.4297 126.128 21.5084C127.21 22.587 127.753 23.8786 127.753 25.3867C127.753 25.9581 127.679 26.3842 127.531 26.6682C127.383 26.9522 127.157 27.2599 126.861 27.5845C126.435 27.7468 125.948 27.8483 125.398 27.8888C124.845 27.9294 124.253 27.9497 123.615 27.9497C122.639 27.9497 121.747 27.9598 120.943 27.9801C120.136 28.0004 119.36 28.0207 118.62 28.041C117.876 28.0613 117.126 28.0714 116.361 28.0714H113.752C113.837 27.5811 114.07 26.8812 114.454 25.9649H114.447Z" fill="white"/>
<path d="M155.081 19.7669C154.337 19.1549 153.435 18.8506 152.374 18.8506C151.059 18.8506 149.892 19.1955 148.874 19.8886C147.855 20.5818 146.984 21.4068 146.265 22.3604C145.543 23.3173 144.951 24.264 144.482 25.2006C144.013 26.1372 143.675 26.8507 143.463 27.3376H143.336L143.463 18.8506H143.082L134.743 21.9647V22.3299C135.25 22.5328 135.761 22.7864 136.269 23.0941C136.777 23.3984 137.224 23.6554 137.605 23.8583C137.901 24.0611 138.081 24.2471 138.148 24.406C138.211 24.5683 138.243 24.8152 138.243 25.1398V45.7791C138.243 46.4317 137.894 46.8983 137.192 47.1823C136.491 47.4664 135.652 47.6523 134.679 47.7335V48.3455H148.937V47.7335C148.511 47.6523 148.014 47.6016 147.443 47.5813C146.872 47.561 146.318 47.5103 145.786 47.4292C145.254 47.348 144.778 47.206 144.355 47.0031C143.928 46.8002 143.653 46.5128 143.527 46.1477V28.5616C143.78 27.9496 144.076 27.3105 144.418 26.6377C144.757 25.9648 145.141 25.3663 145.564 24.8354C145.987 24.308 146.445 23.8684 146.931 23.5235C147.418 23.1786 147.918 23.0028 148.426 23.0028C149.018 23.0028 149.487 23.1144 149.825 23.3375C150.164 23.5607 150.484 23.8177 150.781 24.1017C151.077 24.3857 151.426 24.6427 151.831 24.8659C152.233 25.089 152.776 25.2006 153.452 25.2006C154.175 25.2006 154.809 24.9065 155.363 24.3147C155.913 23.7264 156.191 22.9825 156.191 22.0865C156.191 21.1904 155.817 20.3755 155.077 19.7669H155.081Z" fill="white"/>
<path d="M185.345 47.3683C184.964 47.2872 184.675 47.1452 184.485 46.9423C184.294 46.7394 184.199 46.4351 184.199 46.026V4.19618H183.755L179.469 5.60279C179.162 5.2579 178.789 4.97049 178.341 4.74732C177.855 4.50387 177.301 4.32128 176.684 4.19956C176.068 4.07783 175.444 4.01697 174.806 4.01697C173.449 4.01697 172.12 4.18941 170.826 4.53768C169.533 4.88258 168.345 5.35257 167.263 5.94092C166.18 6.53264 165.215 7.22242 164.365 8.01702C163.516 8.81162 162.857 9.67723 162.391 10.6105C161.922 11.5065 161.637 12.7779 161.531 14.4279C161.425 16.078 161.373 17.7551 161.373 19.466H157.425L156.723 22.1541H161.306V45.7859C161.306 46.1105 161.115 46.3878 160.735 46.6109C160.354 46.8341 159.875 47.0167 159.304 47.1587C158.733 47.3007 158.137 47.4225 157.52 47.5239C156.903 47.6253 156.364 47.6963 155.895 47.7369V48.3489H172.063V47.7369C171.425 47.6558 170.801 47.5949 170.185 47.5543C169.568 47.5137 169.007 47.4326 168.496 47.3109C167.985 47.1891 167.562 47.0268 167.224 46.824C166.885 46.6211 166.67 46.3371 166.586 45.9685V22.1541H173.332L174.161 19.466H166.649C166.649 18.0019 166.66 16.6866 166.681 15.5268C166.702 14.3671 166.755 12.974 166.84 11.3442C166.924 10.083 167.146 9.07536 167.509 8.32134C167.869 7.56731 168.295 6.99926 168.782 6.61041C169.268 6.22494 169.748 5.96797 170.213 5.84624C170.678 5.72451 171.041 5.66365 171.295 5.66365C174.069 5.29847 178.048 6.46501 178.905 14.4212V45.7217C178.905 46.3743 178.588 46.8307 177.95 47.0945C177.312 47.3582 176.018 47.5509 174.065 47.676V48.3489H188.898V47.676C188.091 47.5949 187.389 47.5442 186.797 47.5239C186.201 47.5036 185.715 47.4529 185.334 47.3717H185.345V47.3683Z" fill="white"/>
<path d="M206.194 19.4626V20.1355C206.575 20.1761 206.98 20.2167 207.403 20.2572C207.826 20.2978 208.221 20.379 208.58 20.5007C208.94 20.6224 209.225 20.7983 209.44 21.0214C209.652 21.2446 209.758 21.5421 209.758 21.9073C209.758 22.1508 209.62 22.7729 209.345 23.7704C209.07 24.7679 208.718 25.9682 208.295 27.3748C207.868 28.7781 207.403 30.276 206.895 31.8618C206.388 33.4476 205.898 34.9658 205.433 36.4096C204.964 37.8534 204.562 39.1079 204.224 40.1662C203.885 41.2246 203.653 41.9177 203.522 42.2423C203.142 41.2651 202.694 40.1155 202.186 38.7934C201.675 37.4713 201.157 36.0985 200.628 34.6716C200.096 33.2481 199.567 31.8314 199.039 30.4281C198.506 29.0249 198.031 27.7333 197.608 26.5498C197.181 25.3697 196.843 24.3824 196.589 23.5878C196.335 22.7932 196.208 22.2962 196.208 22.0933C196.208 21.319 196.536 20.8321 197.195 20.6292C197.854 20.4263 198.626 20.264 199.518 20.1389V19.466H185.641V20.1355C187.083 20.2167 188.069 20.379 188.602 20.6224C189.13 20.8659 189.589 21.1905 189.969 21.5996C190.607 23.2666 191.305 25.0992 192.07 27.0908C192.835 29.0824 193.607 31.1078 194.393 33.1602C195.179 35.216 195.951 37.2177 196.716 39.1687C197.481 41.1197 198.157 42.8814 198.753 44.4469C199.345 46.0125 199.835 47.294 200.216 48.2914C200.597 49.2855 200.829 49.8671 200.917 50.0294C200.875 50.2323 200.769 50.638 200.6 51.2501C200.431 51.8587 200.205 52.6026 199.93 53.4783C199.656 54.3507 199.335 55.3279 198.975 56.4065C198.616 57.4851 198.2 58.5705 197.734 59.6694H197.608C197.012 59.1352 196.43 58.6212 195.856 58.1276C195.281 57.6339 194.573 57.3871 193.723 57.3871C192.874 57.3871 192.197 57.6542 191.686 58.1884C191.178 58.7227 190.921 59.4023 190.921 60.224C190.921 61.0456 191.281 61.7151 192.003 62.2291C192.726 62.743 193.508 63 194.358 63C195.334 63 196.289 62.6551 197.223 61.9619C198.157 61.2688 198.88 60.1496 199.388 58.6043C200.11 56.4471 200.861 54.1681 201.647 51.764C202.433 49.3599 203.216 46.9389 204.002 44.4976C204.788 42.0564 205.56 39.6726 206.324 37.353C207.089 35.0334 207.787 32.9066 208.425 30.9725C209.063 29.0384 209.613 27.3613 210.082 25.9344C210.547 24.5109 210.889 23.4728 211.101 22.8203C211.312 22.1711 211.587 21.6706 211.929 21.3257C212.267 20.9808 212.662 20.7272 213.106 20.5616C213.55 20.3993 214.019 20.2978 214.505 20.2572C214.992 20.2167 215.492 20.1761 216 20.1355V19.4626H206.194Z" fill="white"/>
</g>
<defs>
<clipPath id="clip0_40_2277">
<rect width="216" height="63" fill="white"/>
</clipPath>
</defs>
</svg>
