<?xml version="1.0" encoding="utf-8"?>
<!-- Generator: Adobe Illustrator 25.0.1, SVG Export Plug-In . SVG Version: 6.00 Build 0)  -->
<svg version="1.1" id="Layer_1" xmlns="http://www.w3.org/2000/svg" xmlns:xlink="http://www.w3.org/1999/xlink" x="0px" y="0px"
	 viewBox="0 0 1123.8 224.9" style="enable-background:new 0 0 1123.8 224.9;" xml:space="preserve">
<style type="text/css">
	.st0{fill:#031745;}
</style>
<path class="st0" d="M55.1,104.4v19.3l-25.6,0v68.1h25.6v-68.1h30.2l32.9,68.1h29.7l-36-71.8c11.8-3.7,20.4-9.8,26-18.4
	c5.6-8.5,8.3-18,8.3-28.5c0-9.3-2.1-17.8-6.3-25.5c-4.2-7.6-10.6-13.7-19.2-18.2c-8.6-4.5-19.6-6.8-33-6.8H29.5v81.7H55.1
	 M86.3,104.4H55.1V90.2V44.3h30.9c11.9,0,20.5,2.7,25.9,8.1c5.3,5.4,8,12.6,8,21.6c0,9-2.7,16.4-8.1,22
	C106.4,101.6,97.9,104.4,86.3,104.4z M169,191.9V22.8h63.8c17.6,0,30.8,4.1,39.9,12.3c9,8.2,13.5,18.5,13.5,30.9
	c0,10.8-2.9,19.4-8.7,25.7c-5.8,6.4-12.8,10.7-21,12.9c6.4,1.3,12.2,3.9,17.3,7.7c5.1,3.9,9.1,8.7,12,14.5
	c2.9,5.8,4.3,12.1,4.3,18.8c0,8.7-2.1,16.5-6.4,23.6c-4.3,7-10.5,12.5-18.7,16.5c-8.2,4-18.3,6-30.2,6H169z M194.7,95.2h35
	c9.8,0,17.3-2.3,22.5-6.9c5.2-4.6,7.7-10.9,7.7-19c0-7.9-2.5-14.2-7.6-18.8c-5.1-4.7-12.8-7-23.1-7h-34.5V95.2z M194.7,170.9h36.7
	c10.3,0,18.3-2.4,24-7.2c5.7-4.8,8.6-11.6,8.6-20.3s-3-15.6-8.9-20.7c-6-5.1-14-7.6-24.2-7.6h-36.2V170.9z M295.6,191.8l52.2-85.5
	l-52.7-83.6h29.2l39.9,63.3l37.2-63.3h28.8l-52.4,84.8l53.2,84.3h-29.2L361.6,128l-37.2,63.8H295.6z M485.6,192L440,22.6h27.5
	l33.6,140.2l38.7-140.2H568l37.5,140.2l33.6-140.2h27.5l-46.4,169.2h-30l-37-132.7l-38.2,132.7L485.6,192z M705.5,194.7
	c-10.1,0-18.5-1.7-25.1-5.1c-6.6-3.4-11.5-7.9-14.7-13.4c-3.2-5.6-4.8-11.6-4.8-18.2c0-11.6,4.5-20.8,13.5-27.5
	c9-6.8,21.9-10.1,38.7-10.1h31.4v-2.2c0-9.3-2.5-16.3-7.6-21c-5.1-4.7-11.6-7-19.7-7c-7.1,0-13.3,1.7-18.5,5.2
	c-5.2,3.5-8.4,8.6-9.5,15.3h-25.6c0.8-8.7,3.7-16.1,8.8-22.4c5.1-6.2,11.5-11,19.3-14.3c7.8-3.3,16.4-5,25.7-5
	c16.8,0,29.7,4.4,38.9,13.2c9.2,8.8,13.8,20.7,13.8,35.9v73.7h-22.2l-2.2-20.5c-3.4,6.6-8.3,12.2-14.7,16.7
	C724.5,192.4,716,194.7,705.5,194.7z M710.6,173.9c6.9,0,12.8-1.7,17.5-5c4.8-3.3,8.5-7.7,11.1-13.2c2.7-5.5,4.3-11.5,5-18.1h-28.5
	c-10.1,0-17.4,1.8-21.6,5.3c-4.3,3.5-6.4,8-6.4,13.3c0,5.5,2.1,9.8,6.2,12.9C697.9,172.3,703.5,173.9,710.6,173.9z M794.1,191.8
	v-174h25.6v174H794.1z M845.1,191.8v-174h25.6v174H845.1z M951.8,194.7c-11.8,0-22.2-2.6-31.3-7.9c-9.1-5.2-16.2-12.5-21.4-21.9
	c-5.2-9.3-7.7-20.2-7.7-32.6c0-12.6,2.5-23.6,7.6-33.1c5.1-9.5,12.2-16.9,21.3-22.2c9.1-5.3,19.7-8,31.8-8c11.8,0,22,2.6,30.7,7.9
	c8.7,5.2,15.5,12.2,20.3,20.9s7.2,18.3,7.2,28.8c0,1.6,0,3.3-0.1,5.2c-0.1,1.9-0.2,3.9-0.4,6.2h-93.3c0.8,11.6,4.6,20.4,11.5,26.5
	c6.8,6,14.8,9.1,23.8,9.1c7.2,0,13.3-1.7,18.2-5c4.9-3.3,8.6-7.8,11-13.4h25.6c-3.2,11.3-9.6,20.7-19.2,28.3
	C977.8,190.9,966,194.7,951.8,194.7z M951.8,90.1c-8.5,0-16.1,2.5-22.7,7.6c-6.6,5.1-10.6,12.7-12.1,22.8h67.7
	c-0.5-9.3-3.8-16.8-9.9-22.2C968.6,92.8,961,90.1,951.8,90.1z M1077.5,191.8c-11.8,0-21.1-2.9-28-8.6c-6.9-5.7-10.4-15.9-10.4-30.6
	V93.4h-20.5V71.9h20.5l3.1-30.4h22.5v30.4h33.8v21.5h-33.8v59.2c0,6.6,1.4,11.2,4.2,13.7c2.8,2.5,7.7,3.7,14.6,3.7h13.8v21.7H1077.5
	z"/>
</svg>
