<?xml version="1.0" encoding="utf-8"?>
<!-- Generator: Adobe Illustrator 25.0.1, SVG Export Plug-In . SVG Version: 6.00 Build 0)  -->
<svg version="1.1" id="Layer_1" xmlns="http://www.w3.org/2000/svg" xmlns:xlink="http://www.w3.org/1999/xlink" x="0px" y="0px"
	 viewBox="0 0 401.4 169.3" style="enable-background:new 0 0 401.4 169.3;" xml:space="preserve">
<style type="text/css">
	.st0{fill:#031745;}
</style>
<path class="st0" d="M25.6,81.8v19.3l-25.6,0v68.1h25.6v-68.1h30.2l32.9,68.1h29.7l-36-71.8c11.8-3.7,20.4-9.8,26-18.4
	c5.6-8.5,8.3-18,8.3-28.5c0-9.3-2.1-17.8-6.3-25.5c-4.2-7.6-10.6-13.7-19.2-18.2c-8.6-4.5-19.6-6.8-33-6.8H0v81.7H25.6 M56.8,81.8
	H25.6V67.6V21.7h30.9c11.9,0,20.5,2.7,25.9,8.1c5.3,5.4,8,12.6,8,21.6c0,9-2.7,16.4-8.1,22C76.9,79,68.4,81.8,56.8,81.8z
	 M139.5,169.2V0.1h63.8c17.6,0,30.8,4.1,39.9,12.3c9,8.2,13.5,18.5,13.5,30.9c0,10.8-2.9,19.4-8.7,25.7c-5.8,6.4-12.8,10.7-21,12.9
	c6.4,1.3,12.2,3.9,17.3,7.7c5.1,3.9,9.1,8.7,12,14.5c2.9,5.8,4.3,12.1,4.3,18.8c0,8.7-2.1,16.5-6.4,23.6c-4.3,7-10.5,12.5-18.7,16.5
	c-8.2,4-18.3,6-30.2,6H139.5z M165.1,72.6h35c9.8,0,17.3-2.3,22.5-6.9c5.2-4.6,7.7-10.9,7.7-19c0-7.9-2.5-14.2-7.6-18.8
	c-5.1-4.7-12.8-7-23.1-7h-34.5V72.6z M165.1,148.2h36.7c10.3,0,18.3-2.4,24-7.2c5.7-4.8,8.6-11.6,8.6-20.3s-3-15.6-8.9-20.7
	c-6-5.1-14-7.6-24.2-7.6h-36.2V148.2z M266.1,169.2l52.2-85.5L265.6,0h29.2l39.9,63.3L372,0h28.8l-52.4,84.8l53.2,84.3h-29.2
	l-40.1-63.8l-37.2,63.8H266.1z"/>
</svg>
