<?xml version="1.0" encoding="UTF-8"?>
<svg id="Layer_2" data-name="Layer 2" xmlns="http://www.w3.org/2000/svg" viewBox="0 0 283 186.32">
  <g id="Layer_1-2" data-name="Layer 1">
    <g>
      <path fill="#28b14b" d="M105.55,84.65c-3.31-2.77-7.07-4.97-11.29-6.59-4.22-1.62-8.49-2.68-12.82-3.16v-.72c8.19-1.68,14.84-4.97,19.96-9.84,5.12-4.88,7.68-11.29,7.68-19.23,0-7.22-1.99-13.18-5.96-17.88s-9.03-8.19-15.17-10.47c-3.85-1.45-7.86-2.44-12.01-2.98-2-.26-4.05-.45-6.14-.59V0h-5.17v12.98c-.59,0-1.18-.03-1.78-.03h-19.44V0h-5.17v12.96H1.99v1.81c3.25.36,5.78.87,7.58,1.53,1.81.66,3.61,1.96,5.42,3.88.72.72,1.29,1.9,1.71,3.52.42,1.63.78,3.46,1.08,5.51.3,2.05.51,4.18.63,6.41.12,2.23.18,4.42.18,6.59,0,3.61.03,6.8.09,9.57.06,2.77.09,5.48.09,8.13v27.99c0,3.61-.03,7.13-.09,10.56-.06,3.43-.12,6.59-.18,9.48-.06,2.89-.09,5.18-.09,6.86,0,1.93-.06,3.88-.18,5.87-.12,1.99-.33,3.88-.63,5.69-.3,1.81-.63,3.4-.99,4.79-.36,1.38-.84,2.44-1.44,3.16-1.69,1.93-3.88,3.43-6.59,4.51-2.71,1.08-5.57,1.87-8.58,2.35v1.81h38.24v14.33h5.17v-14.33h18.9c.77,0,1.55-.01,2.32-.02v14.35h5.17v-14.45c2.93-.09,5.91-.23,8.94-.42,5.66-.36,10.77-1.38,15.35-3.07,2.65-.96,5.3-2.38,7.95-4.24,2.65-1.87,5.06-4.12,7.22-6.77,2.17-2.65,3.91-5.72,5.24-9.21,1.32-3.49,1.99-7.4,1.99-11.74,0-4.81-.99-9.12-2.98-12.91-1.99-3.79-4.64-7.07-7.95-9.84ZM51.47,15.3c8.43,0,15.35,1.21,20.77,3.61,4.57,2.05,8.4,5.42,11.47,10.11s4.6,10.05,4.6,16.07c0,8.19-2.8,15.05-8.4,20.59-5.6,5.54-13.82,8.61-24.65,9.21-1.69.12-3.91.18-6.68.18h-10.11v-17.34c0-4.57.03-9.39.09-14.45.06-5.06.15-9.69.27-13.91.12-2.17.21-3.91.27-5.24.06-1.32.12-2.44.18-3.34.06-.9.15-1.65.27-2.26.12-.6.24-1.26.36-1.99,1.08-.36,2.65-.66,4.7-.9,2.05-.24,4.33-.36,6.86-.36ZM91.2,125.19c-2.77,4.4-6.68,7.92-11.74,10.56-3.85,2.05-7.83,3.31-11.92,3.79-4.09.48-7.89.72-11.38.72-4.09,0-7.22-.45-9.39-1.35-2.17-.9-3.79-2.01-4.88-3.34-1.44-1.92-2.32-4.36-2.62-7.31-.3-2.95-.51-6.71-.63-11.29,0-2.05-.03-4.48-.09-7.31-.06-2.83-.09-5.93-.09-9.3v-22.57h17.52c3.49,0,6.53.15,9.12.45,2.59.3,5.21.88,7.86,1.72,3.25,1.08,6.23,2.56,8.94,4.42,2.71,1.87,5.06,4.09,7.04,6.68,1.99,2.59,3.55,5.42,4.7,8.49,1.14,3.07,1.71,6.35,1.71,9.84,0,6.14-1.38,11.41-4.15,15.8Z"/>
      <g transform="translate(-330, 0)" fill="#ffffff">
        <path d="M525.83,140.09c-1.08-.24-1.9-.66-2.44-1.26-.54-.6-.81-1.5-.81-2.71V12.42h-1.26l-12.16,4.16c-.87-1.02-1.93-1.87-3.2-2.53-1.38-.72-2.95-1.26-4.7-1.62-1.75-.36-3.52-.54-5.33-.54-3.85,0-7.62.51-11.29,1.54-3.67,1.02-7.04,2.41-10.11,4.15-3.07,1.75-5.81,3.79-8.22,6.14-2.41,2.35-4.28,4.91-5.6,7.67-1.33,2.65-2.14,6.41-2.44,11.29-.3,4.88-.45,9.84-.45,14.9h-11.2l-1.99,7.95h13v69.89c0,.96-.54,1.78-1.62,2.44-1.08.66-2.44,1.2-4.06,1.62-1.62.42-3.31.78-5.06,1.08-1.75.3-3.28.51-4.61.63v1.81h45.87v-1.81c-1.81-.24-3.58-.42-5.33-.54-1.75-.12-3.34-.36-4.79-.72-1.45-.36-2.65-.84-3.61-1.44-.96-.6-1.57-1.44-1.81-2.53v-70.43h19.14l2.35-7.95h-21.31c0-4.33.03-8.22.09-11.65.06-3.43.21-7.55.45-12.37.24-3.73.87-6.71,1.9-8.94,1.02-2.23,2.23-3.91,3.61-5.06,1.38-1.14,2.74-1.9,4.06-2.26,1.32-.36,2.35-.54,3.07-.54,7.87-1.08,19.16,2.37,21.59,25.9v92.57c0,1.93-.9,3.28-2.71,4.06-1.81.78-5.48,1.35-11.02,1.72v1.99h42.08v-1.99c-2.29-.24-4.28-.39-5.96-.45-1.69-.06-3.07-.21-4.15-.45Z"/>
        <path d="M584.99,57.56v1.99c1.08.12,2.23.24,3.43.36,1.2.12,2.32.36,3.34.72,1.02.36,1.83.88,2.44,1.54.6.66.9,1.54.9,2.62,0,.72-.39,2.56-1.17,5.51-.78,2.95-1.78,6.5-2.98,10.66-1.21,4.15-2.53,8.58-3.97,13.27s-2.83,9.18-4.15,13.45c-1.33,4.27-2.47,7.98-3.43,11.11-.96,3.13-1.62,5.18-1.99,6.14-1.08-2.89-2.35-6.29-3.79-10.2-1.45-3.91-2.92-7.97-4.42-12.19-1.51-4.21-3.01-8.4-4.51-12.55-1.51-4.15-2.86-7.97-4.06-11.47-1.21-3.49-2.17-6.41-2.89-8.76-.72-2.35-1.08-3.82-1.08-4.42,0-2.29.93-3.73,2.8-4.33,1.87-.6,4.06-1.08,6.59-1.45v-1.99h-39.37v1.98c4.09.24,6.89.72,8.4,1.44,1.5.72,2.8,1.68,3.88,2.89,1.81,4.93,3.79,10.35,5.96,16.24,2.17,5.89,4.36,11.88,6.59,17.95,2.23,6.08,4.42,12,6.59,17.77,2.17,5.77,4.09,10.98,5.78,15.61,1.68,4.63,3.07,8.42,4.15,11.37,1.08,2.94,1.74,4.66,1.99,5.14-.12.6-.42,1.8-.9,3.61-.48,1.8-1.12,4-1.9,6.59-.78,2.58-1.69,5.47-2.71,8.66-1.02,3.19-2.2,6.4-3.52,9.65h-.36c-1.69-1.58-3.34-3.1-4.97-4.56-1.63-1.46-3.64-2.19-6.05-2.19s-4.33.79-5.78,2.37c-1.44,1.58-2.17,3.59-2.17,6.02s1.02,4.41,3.07,5.93c2.05,1.52,4.27,2.28,6.68,2.28,2.77,0,5.48-1.02,8.13-3.07,2.65-2.05,4.7-5.36,6.14-9.93,2.05-6.38,4.18-13.12,6.41-20.23,2.23-7.11,4.45-14.27,6.68-21.49,2.23-7.22,4.42-14.27,6.59-21.13s4.15-13.15,5.96-18.87c1.81-5.72,3.37-10.68,4.7-14.9,1.32-4.21,2.29-7.28,2.89-9.21.6-1.92,1.38-3.4,2.35-4.42.96-1.02,2.08-1.77,3.34-2.26,1.26-.48,2.59-.78,3.97-.9,1.38-.12,2.8-.24,4.24-.36v-1.99h-27.81Z"/>
      </g>
    </g>
  </g>
</svg>
